<svg xmlns="http://www.w3.org/2000/svg" version="1.1" xmlns:xlink="http://www.w3.org/1999/xlink" viewBox="0 0 7.19989013671875 7.726054825166003"><g transform="matrix(0.8571428571428571,0,0,0.8571428571428571,1.0285557338169644,5.734201613602806)"><rect width="8.926036514619128" height="8.926036514619128" x="-1.4630640336767513" y="-6.6460548251660025" fill="#ffffff"></rect><g transform="matrix(1,0,0,1,0,0)" clip-path="url(#SvgjsClipPath32646)"><g clip-path="url(#SvgjsClipPath3264190fad92e-ec29-40d7-9e2d-c219e1d402a0)"><path d=" M 2.999916160397632 -5.4460731357128775 C 2.0076989709975437 -4.95460064305786 2.3823934581177415 -5.140044724858916 0.7545354664916832 -4.334824597255265 C 0.7545354664916832 -4.019767587016409 0.7548095217849848 -3.218917118811516 0.7547790711968395 -2.9307784284925504 L 3.000007512162066 -1.8195907912112266 C 3.1811885116228686 -1.9094200262380099 3.328417105302361 -1.9823339595504281 3.491921538345181 -2.063195496368608 L 1.2805237008086867 -3.157589634288145 C 1.2808891078664235 -3.5081063544214732 1.2809347837486398 -3.6319945722880727 1.2808434319842061 -4.107906814401163 C 2.323532471234089 -4.624257437570378 1.9552326076242725 -4.441964991642296 3.000007512162066 -4.95883327480997 L 5.245251178421364 -3.847691313410863 L 5.245251178421364 -4.334809371961192 Z" fill="#13181b" transform="matrix(1,0,0,1,0,0)" fill-rule="nonzero"></path></g><g clip-path="url(#SvgjsClipPath3264190fad92e-ec29-40d7-9e2d-c219e1d402a0)"><path d=" M 5.245372980773942 -2.765081553103314 L 3.000083638632428 -3.8762691903846362 L 2.5079107824500824 -3.632664485227255 L 4.719186817633997 -2.5383160231899358 L 4.7193086199865775 -1.587800914253978 C 4.327257297623916 -1.3935566124791103 3.533151634693068 -1.0010333060002088 2.99984003392727 -0.7369962561977506 L 0.754550691785756 -1.8481686681850018 L 0.754550691785756 -1.3610506096346722 L 2.9998552592213428 -0.2498477470592757 C 4.791628766830175 -1.1365840991262166 3.518002467091093 -0.5066680074714442 5.245220727833218 -1.3613094396339012 C 5.245022799010279 -2.1951074442113296 5.245312079597653 -1.9261678497175798 5.245372980773942 -2.765081553103314 Z" fill="#13181b" transform="matrix(1,0,0,1,0,0)" fill-rule="nonzero"></path></g><g clip-path="url(#SvgjsClipPath3264190fad92e-ec29-40d7-9e2d-c219e1d402a0)"><path d=" M 2.9999770615739214 -4.66122445157801 C 2.218280013312029 -4.274501982140667 2.362585350529632 -4.3459695125162146 1.5477123864841182 -3.9423621919526486 C 1.5477123864841182 -3.7192202820284894 1.5477123864841182 -3.5462761666608187 1.5475449082493222 -3.3232712843833085 L 4.093594709495769 -2.063195496368608 C 3.514713803571469 -1.7767772642798163 3.445788897306002 -1.7427335067340728 3.0001293145146444 -1.5217840391563255 C 2.8958512754132126 -1.5733673354734017 0.8745564596639106 -2.573684381319972 0.7547029447264794 -2.6330021270257946 L 0.754550691785756 -2.1459906455339723 L 2.999794358045053 -1.0348334588407937 C 3.308182689480226 -1.187451806621893 4.194979942723457 -1.6260620782577582 4.452439665486665 -1.7534673390550704 L 4.452363539016303 -2.372695274271063 L 1.906237611299495 -3.6329233152264857 L 3.0000988639264996 -4.174136843615826 L 5.2453425301857965 -3.0629796569226477 L 5.2453425301857965 -3.5500977154729774 Z" fill="#800000" transform="matrix(1,0,0,1,0,0)" fill-rule="nonzero"></path></g></g><g><path d=" M 0.489 1.0799999999999996 Q 0.34500000000000003 1.0799999999999996 0.24825 1.0379999999999998 Q 0.1515 0.9959999999999998 0.10200000000000001 0.9284999999999997 Q 0.0525 0.8609999999999998 0.0495 0.7844999999999998 Q 0.0495 0.7724999999999997 0.0585 0.7627499999999997 Q 0.0675 0.7529999999999997 0.081 0.7529999999999997 L 0.2415 0.7529999999999997 Q 0.261 0.7529999999999997 0.2715 0.7612499999999998 Q 0.28200000000000003 0.7694999999999997 0.291 0.7814999999999996 Q 0.3015 0.8069999999999997 0.32475 0.8309999999999997 Q 0.34800000000000003 0.8549999999999998 0.3885 0.8707499999999997 Q 0.429 0.8864999999999997 0.489 0.8864999999999997 Q 0.5865 0.8864999999999997 0.63525 0.8549999999999998 Q 0.684 0.8234999999999997 0.684 0.7694999999999997 Q 0.684 0.7304999999999997 0.6577500000000001 0.7064999999999997 Q 0.6315000000000001 0.6824999999999997 0.57525 0.6629999999999997 Q 0.519 0.6434999999999997 0.426 0.6209999999999998 Q 0.3135 0.5969999999999998 0.23475000000000001 0.5587499999999997 Q 0.156 0.5204999999999997 0.11625 0.45974999999999966 Q 0.0765 0.3989999999999997 0.0765 0.3089999999999997 Q 0.0765 0.21899999999999975 0.126 0.14924999999999966 Q 0.17550000000000002 0.07949999999999968 0.2655 0.03974999999999973 Q 0.3555 -2.220446049250313e-16 0.48 -2.220446049250313e-16 Q 0.5805 -2.220446049250313e-16 0.6577500000000001 0.02699999999999969 Q 0.735 0.053999999999999604 0.7867500000000001 0.0974999999999997 Q 0.8385 0.14099999999999968 0.8655 0.19049999999999967 Q 0.8925000000000001 0.23999999999999966 0.894 0.28649999999999975 Q 0.894 0.29849999999999965 0.885 0.3082499999999997 Q 0.876 0.3179999999999997 0.8625 0.3179999999999997 L 0.6945 0.3179999999999997 Q 0.6795 0.3179999999999997 0.6675 0.3119999999999997 Q 0.6555 0.3059999999999997 0.648 0.2909999999999997 Q 0.639 0.25199999999999967 0.59475 0.22274999999999967 Q 0.5505 0.19349999999999967 0.48 0.19349999999999967 Q 0.40650000000000003 0.19349999999999967 0.36375 0.2204999999999997 Q 0.321 0.24749999999999972 0.321 0.3029999999999997 Q 0.321 0.33899999999999975 0.34275 0.3637499999999997 Q 0.3645 0.38849999999999973 0.41625 0.40724999999999967 Q 0.468 0.4259999999999997 0.5535 0.4484999999999997 Q 0.6855 0.4754999999999997 0.768 0.5129999999999997 Q 0.8505 0.5504999999999998 0.8895000000000001 0.6097499999999998 Q 0.9285 0.6689999999999997 0.9285 0.7589999999999997 Q 0.9285 0.8594999999999997 0.87225 0.9314999999999998 Q 0.8160000000000001 1.0034999999999998 0.71775 1.0417499999999997 Q 0.6195 1.0799999999999996 0.489 1.0799999999999996 M 1.12646630859375 1.0649999999999997 Q 1.1099663085937501 1.0649999999999997 1.09946630859375 1.0544999999999998 Q 1.08896630859375 1.0439999999999998 1.08896630859375 1.0274999999999996 L 1.08896630859375 0.05249999999999977 Q 1.08896630859375 0.03599999999999981 1.09946630859375 0.025499999999999634 Q 1.1099663085937501 0.01499999999999968 1.12646630859375 0.01499999999999968 L 1.28546630859375 0.01499999999999968 Q 1.30196630859375 0.01499999999999968 1.31246630859375 0.025499999999999634 Q 1.32296630859375 0.03599999999999981 1.32296630859375 0.05249999999999977 L 1.32296630859375 0.39449999999999974 L 1.63196630859375 0.04349999999999965 Q 1.6379663085937501 0.03449999999999975 1.65221630859375 0.024749999999999606 Q 1.66646630859375 0.01499999999999968 1.69046630859375 0.01499999999999968 L 1.8719663085937501 0.01499999999999968 Q 1.88546630859375 0.01499999999999968 1.89446630859375 0.024749999999999606 Q 1.90346630859375 0.03449999999999975 1.90346630859375 0.046499999999999764 Q 1.90346630859375 0.05699999999999972 1.89746630859375 0.06449999999999978 L 1.51196630859375 0.5174999999999997 L 1.92596630859375 1.0154999999999996 Q 1.9319663085937502 1.0214999999999996 1.9319663085937502 1.0334999999999996 Q 1.9319663085937502 1.0454999999999997 1.92296630859375 1.0552499999999998 Q 1.91396630859375 1.0649999999999997 1.9004663085937499 1.0649999999999997 L 1.7129663085937499 1.0649999999999997 Q 1.68596630859375 1.0649999999999997 1.6724663085937501 1.0529999999999997 Q 1.65896630859375 1.0409999999999997 1.6544663085937499 1.0364999999999998 L 1.32296630859375 0.6524999999999996 L 1.32296630859375 1.0274999999999996 Q 1.32296630859375 1.0439999999999998 1.31246630859375 1.0544999999999998 Q 1.30196630859375 1.0649999999999997 1.28546630859375 1.0649999999999997 L 1.12646630859375 1.0649999999999997 M 2.36992529296875 1.0649999999999997 Q 2.3534252929687502 1.0649999999999997 2.34292529296875 1.0544999999999998 Q 2.33242529296875 1.0439999999999998 2.33242529296875 1.0274999999999996 L 2.33242529296875 0.6974999999999998 L 1.98142529296875 0.06299999999999972 Q 1.97992529296875 0.058499999999999774 1.97842529296875 0.05474999999999963 Q 1.97692529296875 0.05099999999999971 1.97692529296875 0.046499999999999764 Q 1.97692529296875 0.03449999999999975 1.98667529296875 0.024749999999999606 Q 1.99642529296875 0.01499999999999968 2.00842529296875 0.01499999999999968 L 2.16742529296875 0.01499999999999968 Q 2.18842529296875 0.01499999999999968 2.20042529296875 0.025499999999999634 Q 2.2124252929687502 0.03599999999999981 2.21692529296875 0.04499999999999971 L 2.45242529296875 0.4574999999999997 L 2.68792529296875 0.04499999999999971 Q 2.6924252929687498 0.03599999999999981 2.7044252929687502 0.025499999999999634 Q 2.71642529296875 0.01499999999999968 2.73742529296875 0.01499999999999968 L 2.89642529296875 0.01499999999999968 Q 2.90842529296875 0.01499999999999968 2.91817529296875 0.024749999999999606 Q 2.92792529296875 0.03449999999999975 2.92792529296875 0.046499999999999764 Q 2.92792529296875 0.05099999999999971 2.9264252929687498 0.05474999999999963 Q 2.92492529296875 0.058499999999999774 2.92342529296875 0.06299999999999972 L 2.57242529296875 0.6974999999999998 L 2.57242529296875 1.0274999999999996 Q 2.57242529296875 1.0439999999999998 2.56192529296875 1.0544999999999998 Q 2.5514252929687498 1.0649999999999997 2.53492529296875 1.0649999999999997 L 2.36992529296875 1.0649999999999997 M 3.1049208984375 1.0649999999999997 Q 3.0884208984375 1.0649999999999997 3.0779208984375 1.0544999999999998 Q 3.0674208984375 1.0439999999999998 3.0674208984375 1.0274999999999996 L 3.0674208984375 0.05249999999999977 Q 3.0674208984375 0.03599999999999981 3.0779208984375 0.025499999999999634 Q 3.0884208984375 0.01499999999999968 3.1049208984375 0.01499999999999968 L 3.2714208984375 0.01499999999999968 Q 3.2879208984375 0.01499999999999968 3.2984208984375 0.025499999999999634 Q 3.3089208984375 0.03599999999999981 3.3089208984375 0.05249999999999977 L 3.3089208984375 0.8639999999999997 L 3.7739208984375 0.8639999999999997 Q 3.7904208984375 0.8639999999999997 3.8009208984375 0.8744999999999997 Q 3.8114208984375 0.8849999999999998 3.8114208984375 0.9014999999999997 L 3.8114208984375 1.0274999999999996 Q 3.8114208984375 1.0439999999999998 3.8009208984375 1.0544999999999998 Q 3.7904208984375 1.0649999999999997 3.7739208984375 1.0649999999999997 L 3.1049208984375 1.0649999999999997 M 3.88793994140625 1.0649999999999997 Q 3.87443994140625 1.0649999999999997 3.86543994140625 1.0552499999999998 Q 3.85643994140625 1.0454999999999997 3.85643994140625 1.0334999999999996 Q 3.85643994140625 1.0259999999999998 3.85793994140625 1.0199999999999998 L 4.21493994140625 0.05549999999999966 Q 4.21943994140625 0.0389999999999997 4.23293994140625 0.02699999999999969 Q 4.24643994140625 0.01499999999999968 4.27043994140625 0.01499999999999968 L 4.46243994140625 0.01499999999999968 Q 4.48643994140625 0.01499999999999968 4.49993994140625 0.02699999999999969 Q 4.51343994140625 0.0389999999999997 4.51793994140625 0.05549999999999966 L 4.87493994140625 1.0199999999999998 Q 4.87643994140625 1.0259999999999998 4.87643994140625 1.0334999999999996 Q 4.87643994140625 1.0454999999999997 4.86743994140625 1.0552499999999998 Q 4.85843994140625 1.0649999999999997 4.84493994140625 1.0649999999999997 L 4.68893994140625 1.0649999999999997 Q 4.66643994140625 1.0649999999999997 4.65593994140625 1.0544999999999998 Q 4.64543994140625 1.0439999999999998 4.64243994140625 1.0349999999999997 L 4.57793994140625 0.8669999999999998 L 4.15493994140625 0.8669999999999998 L 4.09043994140625 1.0349999999999997 Q 4.08743994140625 1.0439999999999998 4.07693994140625 1.0544999999999998 Q 4.06643994140625 1.0649999999999997 4.04393994140625 1.0649999999999997 L 3.88793994140625 1.0649999999999997 M 4.21043994140625 0.6734999999999998 L 4.52093994140625 0.6734999999999998 L 4.3664399414062505 0.24149999999999971 L 4.21043994140625 0.6734999999999998 M 5.0429091796875 1.0649999999999997 Q 5.0264091796875 1.0649999999999997 5.0159091796875 1.0544999999999998 Q 5.0054091796875 1.0439999999999998 5.0054091796875 1.0274999999999996 L 5.0054091796875 0.05249999999999977 Q 5.0054091796875 0.03599999999999981 5.0159091796875 0.025499999999999634 Q 5.0264091796875 0.01499999999999968 5.0429091796875 0.01499999999999968 L 5.2064091796875 0.01499999999999968 Q 5.2229091796875 0.01499999999999968 5.2334091796875 0.025499999999999634 Q 5.2439091796875 0.03599999999999981 5.2439091796875 0.05249999999999977 L 5.2439091796875 0.42749999999999966 L 5.6504091796875 0.42749999999999966 L 5.6504091796875 0.05249999999999977 Q 5.6504091796875 0.03599999999999981 5.6609091796875 0.025499999999999634 Q 5.6714091796875 0.01499999999999968 5.6879091796875 0.01499999999999968 L 5.8514091796875 0.01499999999999968 Q 5.8679091796875 0.01499999999999968 5.8784091796875 0.025499999999999634 Q 5.8889091796875 0.03599999999999981 5.8889091796875 0.05249999999999977 L 5.8889091796875 1.0274999999999996 Q 5.8889091796875 1.0439999999999998 5.8784091796875 1.0544999999999998 Q 5.8679091796875 1.0649999999999997 5.8514091796875 1.0649999999999997 L 5.6879091796875 1.0649999999999997 Q 5.6714091796875 1.0649999999999997 5.6609091796875 1.0544999999999998 Q 5.6504091796875 1.0439999999999998 5.6504091796875 1.0274999999999996 L 5.6504091796875 0.6404999999999997 L 5.2439091796875 0.6404999999999997 L 5.2439091796875 1.0274999999999996 Q 5.2439091796875 1.0439999999999998 5.2334091796875 1.0544999999999998 Q 5.2229091796875 1.0649999999999997 5.2064091796875 1.0649999999999997 L 5.0429091796875 1.0649999999999997" fill="#13181b" fill-rule="nonzero"></path></g><g></g></g><defs><clipPath id="SvgjsClipPath32646"><path d=" M 0.7545354664916832 -5.4460731357128775 h 4.4908375142822585 v 5.1960731357128775 h -4.4908375142822585 Z"></path></clipPath><clipPath id="SvgjsClipPath3264190fad92e-ec29-40d7-9e2d-c219e1d402a0"><path d=" M 0.7545354664916832 -5.4460731357128775 L 5.245372980773942 -5.4460731357128775 L 5.245372980773942 -0.25 L 0.7545354664916832 -0.25 Z"></path></clipPath></defs></svg>